<svg id="Layer_1" data-name="Layer 1" xmlns="http://www.w3.org/2000/svg" viewBox="0 0 100 91"><defs><style>.cls-1{fill:#fff;}</style></defs><g id="Group_377" data-name="Group 377"><circle id="Ellipse_2" data-name="Ellipse 2" class="cls-1" cx="50" cy="19" r="2"/><circle id="Ellipse_2-2" data-name="Ellipse 2-2" class="cls-1" cx="50" cy="37" r="2"/><circle id="Ellipse_2-3" data-name="Ellipse 2-3" cx="50" cy="54" r="2"/><circle id="Ellipse_2-4" data-name="Ellipse 2-4" cx="50" cy="72" r="2"/><circle id="Ellipse_2-5" data-name="Ellipse 2-5" cx="50" cy="89" r="2"/><circle id="Ellipse_2-6" data-name="Ellipse 2-6" class="cls-1" cx="82" cy="19" r="2"/><circle id="Ellipse_2-7" data-name="Ellipse 2-7" class="cls-1" cx="98" cy="19" r="2"/><circle id="Ellipse_2-8" data-name="Ellipse 2-8" class="cls-1" cx="82" cy="37" r="2"/><circle id="Ellipse_315" data-name="Ellipse 315" class="cls-1" cx="66" cy="37" r="2"/><circle id="Ellipse_316" data-name="Ellipse 316" class="cls-1" cx="66" cy="19" r="2"/><circle id="Ellipse_2-9" data-name="Ellipse 2-9" class="cls-1" cx="98" cy="37" r="2"/><circle id="Ellipse_2-10" data-name="Ellipse 2-10" cx="82" cy="54" r="2"/><circle id="Ellipse_294" data-name="Ellipse 294" cx="66" cy="54" r="2"/><circle id="Ellipse_295" data-name="Ellipse 295" cx="66" cy="72" r="2"/><circle id="Ellipse_296" data-name="Ellipse 296" cx="66" cy="89" r="2"/><circle id="Ellipse_2-11" data-name="Ellipse 2-11" cx="98" cy="54" r="2"/><circle id="Ellipse_2-12" data-name="Ellipse 2-12" cx="82" cy="72" r="2"/><circle id="Ellipse_2-13" data-name="Ellipse 2-13" cx="98" cy="72" r="2"/><circle id="Ellipse_2-14" data-name="Ellipse 2-14" cx="82" cy="89" r="2"/><circle id="Ellipse_2-15" data-name="Ellipse 2-15" cx="98" cy="89" r="2"/><circle id="Ellipse_2-16" data-name="Ellipse 2-16" class="cls-1" cx="50" cy="2" r="2"/><circle id="Ellipse_2-17" data-name="Ellipse 2-17" class="cls-1" cx="66" cy="2" r="2"/><circle id="Ellipse_2-18" data-name="Ellipse 2-18" class="cls-1" cx="82" cy="2" r="2"/><circle id="Ellipse_2-19" data-name="Ellipse 2-19" class="cls-1" cx="98" cy="2" r="2"/><circle id="Ellipse_2-20" data-name="Ellipse 2-20" class="cls-1" cx="2" cy="2" r="2"/><circle id="Ellipse_2-21" data-name="Ellipse 2-21" class="cls-1" cx="18" cy="2" r="2"/><circle id="Ellipse_2-22" data-name="Ellipse 2-22" class="cls-1" cx="2" cy="19" r="2"/><circle id="Ellipse_2-23" data-name="Ellipse 2-23" class="cls-1" cx="18" cy="19" r="2"/><circle id="Ellipse_2-24" data-name="Ellipse 2-24" class="cls-1" cx="2" cy="37" r="2"/><circle id="Ellipse_2-25" data-name="Ellipse 2-25" class="cls-1" cx="18" cy="37" r="2"/><circle id="Ellipse_279" data-name="Ellipse 279" class="cls-1" cx="35" cy="37" r="2"/><circle id="Ellipse_280" data-name="Ellipse 280" class="cls-1" cx="35" cy="19" r="2"/><circle id="Ellipse_281" data-name="Ellipse 281" class="cls-1" cx="35" cy="2" r="2"/><circle id="Ellipse_2-26" data-name="Ellipse 2-26" cx="2" cy="54" r="2"/><circle id="Ellipse_2-27" data-name="Ellipse 2-27" cx="18" cy="54" r="2"/><circle id="Ellipse_2-28" data-name="Ellipse 2-28" cx="2" cy="72" r="2"/><circle id="Ellipse_2-29" data-name="Ellipse 2-29" cx="18" cy="72" r="2"/><circle id="Ellipse_2-30" data-name="Ellipse 2-30" cx="2" cy="89" r="2"/><circle id="Ellipse_2-31" data-name="Ellipse 2-31" cx="18" cy="89" r="2"/><circle id="Ellipse_276" data-name="Ellipse 276" cx="35" cy="89" r="2"/><circle id="Ellipse_277" data-name="Ellipse 277" cx="35" cy="72" r="2"/><circle id="Ellipse_278" data-name="Ellipse 278" cx="35" cy="54" r="2"/></g></svg>