<svg id="Layer_1" data-name="Layer 1" xmlns="http://www.w3.org/2000/svg" viewBox="0 0 21.42 21.55"><g id="iconfinder_cart_shopping_ecommerce_basket_5402359" data-name="iconfinder cart shopping ecommerce basket 5402359"><path id="Path_241" data-name="Path 241" d="M308.58,415.69v.14L307,421.65a3.23,3.23,0,0,1-3.15,2.39h-8.24a3.23,3.23,0,0,1-3.24-2.94l-.7-7.93a1.08,1.08,0,0,0-1.08-1h-2.34a1.08,1.08,0,0,1,0-2.16h2.34a3.24,3.24,0,0,1,3.24,2.94v.29h12.6a2.16,2.16,0,0,1,2.17,2.14,2.83,2.83,0,0,1,0,.29Z" transform="translate(-287.18 -410.03)"/><circle id="Ellipse_274" data-name="Ellipse 274" cx="7.55" cy="18.86" r="2.69"/><circle id="Ellipse_275" data-name="Ellipse 275" cx="16.17" cy="18.86" r="2.69"/></g></svg>