<svg id="Layer_1" data-name="Layer 1" xmlns="http://www.w3.org/2000/svg" xmlns:xlink="http://www.w3.org/1999/xlink" viewBox="0 0 21.4 18.67"><defs><style>.cls-1{fill:none;}.cls-2{clip-path:url(#clip-path);}</style><clipPath id="clip-path" transform="translate(-289.79 -410.59)"><rect class="cls-1" x="280.4" y="410.64" width="35" height="21"/></clipPath></defs><g class="cls-2"><g id="Mask_Group_3" data-name="Mask Group 3"><path id="iconfinder_icon-heart_2867909" data-name="iconfinder icon-heart 2867909" d="M301.25,412.19a5.91,5.91,0,0,1,8.35,8.36L301.2,429a1,1,0,0,1-1.4,0h0l-8.41-8.42a5.91,5.91,0,0,1,8.36-8.36l.75.74Zm7,7a3.94,3.94,0,0,0-5.57-5.58L301.2,415a1,1,0,0,1-1.4,0h0l-1.44-1.44a3.95,3.95,0,0,0-5.58,5.58l7.71,7.71Z" transform="translate(-289.79 -410.59)"/></g></g></svg>